<svg xmlns="http://www.w3.org/2000/svg" viewBox="0 0 26 26" id="User"><g transform="translate(0 -1026.362)" fill="#000000" class="color000000 svgShape"><circle cx="13" cy="1039.362" r="13" fill="#3323db" fill-rule="evenodd" class="color239fdb svgShape"></circle><path style="line-height:normal;text-indent:0;text-align:start;text-decoration-line:none;text-decoration-style:solid;text-decoration-color:#000;text-transform:none;block-progression:tb;isolation:auto;mix-blend-mode:normal" fill="#6556ff" d="M12.248 25.963A13 13 0 0 0 13 26a13 13 0 0 0 .92-.033 13 13 0 0 0 1.289-.156 13 13 0 0 0 1.268-.286 13 13 0 0 0 1.234-.408 13 13 0 0 0 1.185-.531 13 13 0 0 0 1.127-.647 13 13 0 0 0 1.057-.755 13 13 0 0 0 .977-.858 13 13 0 0 0 .886-.951 13 13 0 0 0 .786-1.035 13 13 0 0 0 .68-1.108 13 13 0 0 0 .566-1.17 13 13 0 0 0 .445-1.22 13 13 0 0 0 .176-.69L15.482 6.04l-.011-.012A3.486 3.486 0 0 0 13 5a3.51 3.51 0 0 0-3.428 4.209 3.463 3.463 0 0 0 .955 1.77l.002.001 2.03 2.03H9.787c-1.537 0-2.795 1.243-2.795 2.775V20.5c0 .138.056.263.147.354l5.109 5.109z" color="#000" font-family="sans-serif" font-weight="400" transform="translate(0 1026.362)" class="color0b5ecd svgShape"></path><path style="line-height:normal;text-indent:0;text-align:start;text-decoration-line:none;text-decoration-style:solid;text-decoration-color:#000;text-transform:none;block-progression:tb;isolation:auto;mix-blend-mode:normal" fill="#ffffff" d="M8.467 1037.328a3.291 3.291 0 0 0-3.282 3.286 3.29 3.29 0 0 0 3.282 3.285 3.29 3.29 0 0 0 3.282-3.285 3.291 3.291 0 0 0-3.282-3.286zm-3.013 7.51c-1.441 0-2.62 1.167-2.62 2.604v4.42c0 .259.21.469.468.469h10.332a.47.47 0 0 0 .467-.47V1047.443c0-1.437-1.18-2.604-2.621-2.604z" color="#000" font-family="sans-serif" font-weight="400" overflow="visible" transform="translate(3.97 -74.863) scale(1.06642)" class="colorffffff svgShape"></path></g></svg>